<?xml version="1.0" encoding="utf-8"?>
<!-- Generator: Adobe Illustrator 27.6.1, SVG Export Plug-In . SVG Version: 6.00 Build 0)  -->
<svg version="1.1" id="Layer_1" xmlns="http://www.w3.org/2000/svg" xmlns:xlink="http://www.w3.org/1999/xlink" x="0px" y="0px"
	 viewBox="0 0 200 200" style="enable-background:new 0 0 200 200;" xml:space="preserve">
<style type="text/css">
	.st0{fill:#DDDDDD;}
	.st1{fill:#FFCC00;}
</style>
<g>
	<path class="st0" d="M106.8,4.2l25,50.7c1.1,2.2,3.2,3.8,5.7,4.2l56,8.1c6.2,0.9,8.7,8.6,4.2,12.9l-40.5,39.5
		c-1.8,1.7-2.6,4.3-2.2,6.7l9.6,55.7c1.1,6.2-5.4,10.9-11,8l-50-26.3c-2.2-1.2-4.9-1.2-7.1,0l-50,26.3c-5.6,2.9-12.1-1.8-11-8
		l9.6-55.7c0.4-2.5-0.4-5-2.2-6.7L2.3,80.2c-4.5-4.4-2-12,4.2-12.9l56-8.1c2.5-0.4,4.6-1.9,5.7-4.2l25-50.7
		C96-1.4,104-1.4,106.8,4.2z"/>
</g>
<g>
	<path class="st1" d="M140,59.4l-2.5-0.4c-2.5-0.4-4.6-1.9-5.7-4.2l-25-50.7C104-1.4,96-1.4,93.2,4.2l-25,50.7
		c-1.1,2.2-3.2,3.8-5.7,4.2l-56,8.1c-6.2,0.9-8.7,8.6-4.2,12.9l40.5,39.5c1.8,1.7,2.6,4.3,2.2,6.7l-9.6,55.7c-1.1,6.2,5.4,10.9,11,8
		l50-26.3c2.2-1.2,4.9-1.2,7.1,0l36.5,19.2V59.4z"/>
</g>
</svg>
