<?xml version="1.0" encoding="utf-8"?>
<!-- Generator: Adobe Illustrator 27.6.1, SVG Export Plug-In . SVG Version: 6.00 Build 0)  -->
<svg version="1.1" id="Layer_1" xmlns="http://www.w3.org/2000/svg" xmlns:xlink="http://www.w3.org/1999/xlink" x="0px" y="0px"
	 viewBox="0 0 200 81" style="enable-background:new 0 0 200 81;" xml:space="preserve">
<style type="text/css">
	.st0{fill:#FFFFFF;}
	.st1{fill:none;stroke:#FF0000;stroke-width:5.2639;stroke-miterlimit:10;}
</style>
<g>
	<path class="st0" d="M39.3,80.8H29.2l-2.6-7.6h-14L10,80.8H0.1l14-37.8h11.2L39.3,80.8z M24.2,66.3l-4.7-13.6l-4.7,13.6H24.2z"/>
	<path class="st0" d="M81.1,80.8H69.2L58.9,66.9h-4.5v13.9h-9.7V43h16.4c2.3,0,4.1,0.1,5.8,0.4c1.6,0.2,3.1,0.8,4.6,1.6
		c1.4,0.9,2.6,2,3.4,3.3c0.9,1.3,1.3,3,1.3,5.1c0,2.8-0.7,5.1-2,6.8s-3.1,3.3-5.5,4.3L81.1,80.8z M65.9,54.5c0-1-0.2-1.7-0.5-2.4
		c-0.4-0.7-1.1-1.2-2-1.6c-0.7-0.2-1.4-0.4-2.3-0.5c-0.9-0.1-2-0.1-3-0.1h-3.7v10.2h3c1.5,0,2.8-0.1,3.9-0.2c1.1-0.1,2-0.5,2.6-1.1
		c0.7-0.5,1.2-1.1,1.5-1.7C65.7,56.5,65.9,55.6,65.9,54.5z"/>
	<path class="st0" d="M112.7,80.8H85.3V43h27.4v7.3H95.1v6.5h16.4v7.3H95.1v9.3h17.7v7.4H112.7z"/>
	<path class="st0" d="M155.3,80.8h-9.4l-16.1-25.9v25.9h-8.9V43h11.7l13.8,21.7V43h8.9V80.8z"/>
	<path class="st0" d="M199.9,80.8h-10.1l-2.6-7.6h-14l-2.6,7.6h-9.9l14-37.8h11.2L199.9,80.8z M184.9,66.3l-4.7-13.6l-4.7,13.6
		H184.9z"/>
</g>
<line class="st1" x1="13.8" y1="34.7" x2="186.2" y2="34.7"/>
<g>
	<path class="st0" d="M60.7,29.3c-2.1,0-4-0.3-5.7-0.9c-1.7-0.6-3.2-1.5-4.5-2.7c-1.2-1.2-2.2-2.7-2.9-4.5c-0.7-1.8-1-3.9-1-6.2
		c0-2.2,0.3-4.2,1-6c0.7-1.8,1.6-3.3,2.9-4.6c1.2-1.2,2.7-2.2,4.5-2.8s3.7-1,5.8-1c1.2,0,2.2,0.1,3.1,0.2c0.9,0.1,1.8,0.3,2.6,0.5
		c0.8,0.2,1.6,0.5,2.3,0.8s1.3,0.6,1.8,0.8v6.7h-0.8c-0.3-0.3-0.8-0.6-1.3-1.1c-0.5-0.4-1.1-0.8-1.8-1.2c-0.7-0.4-1.4-0.7-2.2-1
		C63.5,6.1,62.7,6,61.8,6c-1,0-2,0.2-2.9,0.5C58,6.7,57.2,7.3,56.4,8c-0.7,0.7-1.3,1.6-1.8,2.8C54.2,12,54,13.4,54,15
		c0,1.7,0.2,3.2,0.7,4.3c0.5,1.2,1.1,2.1,1.8,2.7c0.8,0.7,1.6,1.2,2.5,1.5c0.9,0.3,1.8,0.4,2.7,0.4c0.9,0,1.7-0.1,2.6-0.4
		c0.8-0.3,1.6-0.6,2.3-1.1c0.6-0.4,1.2-0.7,1.7-1.1c0.5-0.4,0.9-0.8,1.3-1.1h0.7V27c-0.7,0.3-1.4,0.6-2,0.9c-0.6,0.3-1.3,0.5-2,0.7
		c-0.9,0.3-1.8,0.5-2.5,0.6S62,29.3,60.7,29.3z"/>
	<path class="st0" d="M97.3,6.5h-8.6v22.3h-7.1V6.5h-8.6V1.2h24.4V6.5z"/>
	<path class="st0" d="M128.2,28.8h-8.7L112,18.7h-3.3v10.1h-7.1V1.2h12c1.6,0,3,0.1,4.2,0.3s2.3,0.6,3.3,1.2c1,0.6,1.9,1.4,2.5,2.4
		s0.9,2.2,0.9,3.7c0,2-0.5,3.7-1.4,5s-2.3,2.4-4.1,3.2L128.2,28.8z M117.1,9.6c0-0.7-0.1-1.3-0.4-1.8s-0.8-0.9-1.5-1.2
		c-0.5-0.2-1-0.3-1.7-0.4s-1.4-0.1-2.2-0.1h-2.6v7.4h2.2c1.1,0,2.1-0.1,2.9-0.2s1.4-0.4,1.9-0.8c0.5-0.4,0.9-0.8,1.1-1.3
		S117.1,10.4,117.1,9.6z"/>
	<path class="st0" d="M153.5,20.1c0,2.7-1.2,4.9-3.5,6.6c-2.3,1.7-5.4,2.6-9.4,2.6c-2.3,0-4.3-0.2-6-0.6c-1.7-0.4-3.3-0.9-4.8-1.5
		v-6.6h0.8c1.5,1.2,3.1,2.1,4.9,2.7c1.8,0.6,3.6,0.9,5.3,0.9c0.4,0,1,0,1.7-0.1c0.7-0.1,1.3-0.2,1.7-0.4c0.5-0.2,1-0.5,1.3-0.8
		c0.4-0.3,0.5-0.8,0.5-1.5c0-0.6-0.3-1.1-0.8-1.6c-0.5-0.4-1.3-0.8-2.3-1c-1-0.2-2.1-0.5-3.3-0.7s-2.2-0.5-3.3-0.8
		c-2.3-0.8-4-1.8-5-3.1s-1.5-2.9-1.5-4.8c0-2.6,1.2-4.7,3.5-6.3s5.3-2.4,8.9-2.4c1.8,0,3.6,0.2,5.4,0.5s3.3,0.8,4.6,1.3v6.4h-0.8
		c-1.1-0.9-2.5-1.6-4.1-2.2c-1.6-0.6-3.3-0.9-4.9-0.9c-0.6,0-1.2,0-1.8,0.1c-0.6,0.1-1.2,0.2-1.7,0.5c-0.5,0.2-0.9,0.5-1.2,0.8
		c-0.3,0.4-0.5,0.8-0.5,1.3c0,0.7,0.3,1.3,0.8,1.7c0.6,0.4,1.6,0.7,3.2,1.1c1,0.2,2,0.4,2.9,0.6c0.9,0.2,1.9,0.5,3,0.8
		c2.1,0.7,3.7,1.6,4.7,2.8C152.9,16.6,153.5,18.2,153.5,20.1z"/>
</g>
</svg>
